<svg xmlns="http://www.w3.org/2000/svg" viewBox="0 0 64 64">
  <!-- Background circle -->
  <circle cx="32" cy="32" r="30" fill="#4CAF50" />
  
  <!-- Camera body -->
  <rect x="16" y="22" width="32" height="24" rx="3" fill="#263238" />
  
  <!-- Camera lens -->
  <circle cx="32" cy="34" r="10" fill="#546E7A" />
  <circle cx="32" cy="34" r="8" fill="#37474F" />
  <circle cx="32" cy="34" r="4" fill="#102027" />
  
  <!-- Camera flash -->
  <rect x="20" y="24" width="6" height="3" rx="1" fill="#FFEB3B" />
  
  <!-- Fork and knife design inside lens -->
  <path d="M29 32L27 30L30 27M35 32L37 30L34 27" fill="none" stroke="#FFFFFF" stroke-width="1.5" stroke-linecap="round" />
  
  <!-- Steam/aroma coming from lens (food aspect) -->
  <path d="M30 26C30 24 28 24 28 22S30 20 30 18" fill="none" stroke="#FFFFFF" stroke-width="1" stroke-linecap="round" />
  <path d="M34 26C34 24 36 24 36 22S34 20 34 18" fill="none" stroke="#FFFFFF" stroke-width="1" stroke-linecap="round" />
  <path d="M32 25C32 23 30 23 30 21S32 19 32 17" fill="none" stroke="#FFFFFF" stroke-width="1" stroke-linecap="round" />
  
  <!-- Camera strap holes -->
  <circle cx="18" cy="24" r="1" fill="#EEEEEE" />
  <circle cx="46" cy="24" r="1" fill="#EEEEEE" />
  
  <!-- Shutter button -->
  <circle cx="42" cy="25" r="2" fill="#F44336" />
</svg>